HIERARCHY
ROOT Hips
{
	OFFSET 0.000000 0.000000 0.000000 
	CHANNELS 6 Xposition Yposition Zposition Yrotation Zrotation Xrotation 
	JOINT Lumbar
	{
		OFFSET 0.000000 0.000000 0.000000 
		CHANNELS 3 Zrotation Xrotation Yrotation
		JOINT Neck
		{
			OFFSET 0.000000 0.445665 0.000000 
			CHANNELS 3 Zrotation Xrotation Yrotation
			End Site
			{
				OFFSET 0.000000 0.227535 0.000000 
			}
		}
		JOINT RightShoulder
		{
			OFFSET 0.019635 0.377685 0.194865 
			CHANNELS 3 Zrotation Xrotation Yrotation
			JOINT RightElbow
			{
				OFFSET 0.000000 -0.243375 0.000000 
				CHANNELS 2 Zrotation Yrotation
				JOINT RightWrist
				{
					OFFSET 0.000000 -0.264825 0.000000 
					CHANNELS 2 Zrotation Xrotation
					End Site
					{
						OFFSET 0.006600 -0.176220 0.000990 
					}
				}
			}
		}
		JOINT LeftShoulder
		{
			OFFSET 0.019635 0.377685 -0.194865 
			CHANNELS 3 Zrotation Xrotation Yrotation
			JOINT LeftElbow
			{
				OFFSET 0.000000 -0.243375 0.000000 
				CHANNELS 2 Zrotation Yrotation
				JOINT LeftWrist
				{
					OFFSET 0.000000 -0.264825 0.000000 
					CHANNELS 2 Zrotation Xrotation
					End Site
					{
						OFFSET 0.006600 -0.176220 -0.000990 
					}
				}
			}
		}
	}
	JOINT RightHip
	{
		OFFSET 0.052140 -0.069960 0.075570 
		CHANNELS 3 Zrotation Xrotation Yrotation
		JOINT RightKnee
		{
			OFFSET 0.000000 -0.402270 0.000000 
			CHANNELS 1 Zrotation
			JOINT RightAnkle
			{
				OFFSET 0.000000 -0.404085 0.000000 
				CHANNELS 3 Zrotation Xrotation Yrotation
				End Site
				{
					OFFSET 0.204105 -0.089430 0.008415 
				}
			}
		}
	}
	JOINT LeftHip
	{
		OFFSET 0.052140 -0.069960 -0.075570 
		CHANNELS 3 Zrotation Xrotation Yrotation
		JOINT LeftKnee
		{
			OFFSET 0.000000 -0.402270 0.000000 
			CHANNELS 1 Zrotation
			JOINT LeftAnkle
			{
				OFFSET 0.000000 -0.404085 0.000000 
				CHANNELS 3 Zrotation Xrotation Yrotation
				End Site
				{
					OFFSET 0.204105 -0.089430 -0.008415 
				}
			}
		}
	}
}
MOTION
Frames: 33
Frame Time: 0.02
-1.69237 -0.34784 -0.37878 -326.66722 -64.56737 -21.46361 -7.2608 1.62926 1.94866 6.99531 -16.77823 -0.83079 81.43953 -22.02975 -1.74249 8.8492 91.68623 -5.45491 -17.06458 97.14995 29.01876 21.6517 5.36403 -75.90033 0.37108 9.5936 108.2177 -14.09281 -1.80296 -42.5654 -9.42706 -3.14372 -2.39663 115.88081 0.33096 6.21095 -49.96809 -9.44241 4.82681 3.35628
-1.69264 -0.34954 -0.37916 -327.83115 -64.90587 -22.51129 -7.64782 1.75315 1.49346 7.95856 -17.36921 -0.83079 82.5238 -20.8211 -2.67833 8.67986 90.44833 -4.42559 -16.82101 99.20913 30.27704 33.90597 5.30608 -76.14343 1.46085 8.45391 109.0544 -13.99635 -2.1224 -43.10838 -9.37785 -3.11248 -2.37814 116.82558 0.66238 6.24605 -50.66493 -9.36148 4.82499 3.34993
-1.69292 -0.35152 -0.37933 -329.16455 -65.29753 -23.73249 -8.01129 1.88435 1.0287 9.01993 -17.85768 -0.83079 83.62708 -19.55017 -3.39957 8.575 89.67535 -3.50357 -16.28782 101.45918 31.55245 46.86004 5.34124 -77.71514 2.0678 6.95286 110.02908 -13.87469 -2.45931 -43.73673 -9.32433 -3.07903 -2.35823 117.91489 1.03485 6.25601 -51.433 -9.27593 4.82041 3.34176
-1.69318 -0.35337 -0.37959 -330.41612 -65.65856 -24.87114 -8.38873 2.01206 0.57526 10.02578 -18.38972 -0.83079 84.71521 -18.30935 -4.20365 8.44244 88.69381 -2.55206 -15.90517 103.58951 32.78843 59.17843 5.34302 -78.59059 2.88352 5.66397 110.93435 -13.76268 -2.78402 -44.32685 -9.27294 -3.04718 -2.33925 118.93162 1.38269 6.26512 -52.16676 -9.19406 4.81797 3.33512
-1.69351 -0.35525 -0.37985 -331.69957 -66.0466 -26.03555 -8.75648 2.14074 0.08791 11.08441 -18.93915 -0.83079 85.83952 -17.04955 -5.08375 8.3012 87.70459 -1.51677 -15.44894 105.86909 34.17288 72.97273 5.31275 -79.81117 3.76924 4.16993 111.87147 -13.65445 -3.12835 -44.91681 -9.22091 -3.01278 -2.31905 119.98244 1.75874 6.3214 -52.91265 -9.10546 4.81199 3.32568
-1.69368 -0.35713 -0.38006 -332.94614 -66.39116 -27.17729 -9.13624 2.26866 -0.32763 12.0519 -19.42647 -0.83079 86.88765 -15.82174 -5.7492 8.19405 86.82124 -0.67677 -15.07211 107.87177 35.23968 83.75468 5.36749 -80.65381 4.38076 3.01973 112.77218 -13.53504 -3.43352 -45.52567 -9.16923 -2.98325 -2.30111 120.99201 2.08345 6.27712 -53.64676 -9.03 4.81259 3.32154
-1.69345 -0.35904 -0.38018 -334.1252 -66.60186 -28.29064 -9.56658 2.39745 -0.56266 12.76641 -19.76212 -0.83079 87.74338 -14.66311 -5.87382 8.16617 86.36207 -0.42233 -15.01932 109.15377 35.50647 86.70207 5.65966 -80.03436 4.40222 2.89116 113.55546 -13.37666 -3.64962 -46.17547 -9.11874 -2.96671 -2.28907 121.88368 2.27056 5.93822 -54.35364 -8.98959 4.83278 3.3329
-1.69305 -0.36094 -0.38026 -335.24543 -66.76684 -29.3596 -10.00677 2.52438 -0.72014 13.38 -20.03759 -0.83079 88.51538 -13.54718 -5.78815 8.17079 85.95709 -0.35055 -15.05043 110.13208 35.43566 86.46734 6.03206 -79.01504 4.15139 3.12394 114.29304 -13.21138 -3.82213 -46.8388 -9.06887 -2.95526 -2.27943 122.72187 2.40153 5.5037 -55.04111 -8.96303 4.8595 3.34956
-1.69272 -0.36281 -0.38034 -336.34365 -66.95372 -30.39931 -10.43497 2.64906 -0.90069 14.02548 -20.34525 -0.83079 89.3116 -12.4344 -5.79687 8.15977 85.35999 -0.14614 -15.01939 111.19144 35.46646 87.24121 6.34646 -78.24039 3.99144 3.20256 115.04131 -13.05841 -3.99843 -47.49017 -9.01926 -2.94225 -2.26919 123.56474 2.54884 5.12839 -55.72309 -8.93155 4.88274 3.36351
-1.69245 -0.36486 -0.38046 -337.65813 -67.13902 -31.65734 -10.89599 2.787 -1.13655 14.73734 -20.63508 -0.83079 90.17224 -11.22086 -5.80241 8.15327 85.45734 -0.14614 -15.0764 112.50334 35.72133 89.86146 6.74207 -77.2302 3.95773 3.22758 115.84058 -12.86394 -4.24 -48.17142 -8.96729 -2.9263 -2.257 124.49899 2.73698 4.68544 -56.47047 -8.89387 4.90812 3.37867
-1.69199 -0.36651 -0.3805 -338.50039 -67.31444 -32.44337 -11.2889 2.89685 -1.23421 15.28079 -20.94144 -0.83079 90.87195 -10.23222 -5.76851 8.14594 84.15097 0.22676 -14.97786 113.20792 35.42334 87.90427 7.00274 -76.61793 3.59767 3.45286 116.51644 -12.75691 -4.33879 -48.7896 -8.92035 -2.91731 -2.24923 125.22401 2.82539 4.36123 -57.07298 -8.87276 4.93055 3.39256
-1.6911 -0.36717 -0.38034 -338.1003 -67.48667 -31.9747 -11.51165 2.92889 -1.00816 15.42495 -21.37413 -0.83079 91.20354 -9.81886 -5.66752 8.1134 78.64782 1.76617 -14.39463 112.36577 33.73219 73.80223 6.72804 -77.0251 2.44943 4.16103 116.89997 -12.87254 -4.0206 -49.25453 -8.88795 -2.92985 -2.25514 125.4201 2.65914 4.38635 -57.30658 -8.89139 4.94397 3.402
-1.69002 -0.3674 -0.3801 -337.21811 -67.6475 -31.02534 -11.66179 2.93283 -0.63934 15.39508 -21.81397 -0.83079 91.36542 -9.63617 -5.53669 8.08122 71.78685 3.66972 -13.65984 110.91186 31.48869 55.26283 6.33947 -77.86867 0.978 5.0565 117.15282 -13.07967 -3.56565 -49.6503 -8.86049 -2.94868 -2.26511 125.40001 2.39321 4.53451 -57.39 -8.92676 4.95402 3.40988
-1.68899 -0.36776 -0.3799 -336.52382 -67.80525 -30.26943 -11.832 2.94999 -0.30905 15.41722 -22.20745 -0.83079 91.56841 -9.37282 -5.42717 8.05852 65.74473 5.34762 -13.01861 109.69988 29.46206 38.92406 6.0984 -78.62763 -0.37624 5.85625 117.44089 -13.25931 -3.19601 -50.06177 -8.83021 -2.96219 -2.2718 125.45479 2.16773 4.62808 -57.52417 -8.95616 4.96519 3.41828
-1.68808 -0.36841 -0.37969 -335.95608 -67.99771 -29.61462 -12.05726 2.96509 -0.08335 15.54954 -22.7797 -0.83079 91.92094 -9.01355 -5.27843 7.99688 58.84623 7.27618 -12.27604 108.62825 27.55964 21.65543 5.46237 -78.91142 -1.62375 6.71379 117.83116 -13.38197 -2.73001 -50.5413 -8.80221 -2.98583 -2.28437 125.60672 1.95964 4.71374 -57.73057 -8.97902 4.9785 3.42777
-1.68688 -0.36836 -0.37948 -335.01504 -68.11398 -28.63943 -12.1503 2.97795 0.38811 15.41323 -22.98345 -0.83079 91.9223 -8.90245 -5.20583 8.01524 53.41656 8.76766 -11.70736 107.12485 25.28205 5.36422 5.61285 -80.27097 -3.15567 7.48993 117.97599 -13.64167 -2.42916 -50.86104 -8.77081 -2.99033 -2.28594 125.50534 1.69384 4.84504 -57.75241 -9.01944 4.98623 3.43442
-1.68492 -0.36652 -0.37928 -333.12799 -68.03791 -26.86547 -11.89791 2.99001 1.54518 14.56989 -22.15764 -0.83079 91.00036 -9.46961 -5.36384 8.25994 52.29685 8.99999 -11.65682 104.56641 22.02046 -7.58672 8.02909 -84.68833 -5.48693 8.00129 117.49333 -14.28678 -2.64984 -50.76876 -8.72711 -2.93569 -2.25339 124.76122 1.28083 5.08213 -57.29185 -9.10323 4.98145 3.43462
-1.68268 -0.36399 -0.37907 -330.88972 -67.88283 -24.79274 -11.51481 3.00079 2.93595 13.46416 -20.96392 -0.83079 89.73098 -10.26842 -5.59903 8.58332 52.71149 8.7761 -11.78562 101.60068 18.42047 -19.30471 11.22599 -90.1382 -8.07464 8.42131 116.76537 -15.06092 -3.03608 -50.5161 -8.6801 -2.86233 -2.21008 123.77027 0.81579 5.35815 -56.65396 -9.2044 4.97076 3.43181
-1.68056 -0.36177 -0.37886 -328.83255 -67.75428 -22.8766 -11.18998 3.01348 4.19241 12.48415 -19.94447 -0.83079 88.61713 -10.92948 -5.79029 8.86765 52.48093 8.7351 -11.8318 98.82823 15.028 -31.27621 14.02435 -94.99094 -10.48227 8.87766 116.13746 -15.75708 -3.32519 -50.32819 -8.63573 -2.80069 -2.17353 122.88869 0.38286 5.61218 -56.10185 -9.29806 4.96133 3.42964
-1.67843 -0.35955 -0.37867 -326.66223 -67.6653 -20.85195 -10.86641 3.02068 5.57448 11.47061 -18.89147 -0.83079 87.50482 -11.73865 -6.01413 9.16844 52.00353 8.80099 -11.87889 95.99035 11.37741 -44.68846 17.01198 -100.4016 -13.16887 9.36302 115.5516 -16.53919 -3.70022 -50.17049 -8.5868 -2.72603 -2.12941 122.00691 -0.08944 5.89438 -55.517 -9.39007 4.95768 3.43039
-1.67627 -0.35718 -0.37843 -324.65745 -67.47477 -18.99347 -10.51136 3.03801 6.74615 10.46697 -17.82581 -0.83079 86.31215 -12.28766 -6.19337 9.45048 52.39666 8.54232 -11.96684 93.21172 8.20612 -54.76315 19.78167 -104.88601 -15.33198 9.76331 114.82365 -17.17034 -3.93951 -49.91487 -8.54645 -2.67359 -2.09823 121.07535 -0.49061 6.11827 -54.96717 -9.49016 4.94079 3.42449
-1.67406 -0.35448 -0.37805 -323.13859 -67.0284 -17.62816 -10.09135 3.09575 7.29888 9.55624 -16.77308 -0.83079 84.95724 -12.09271 -6.18842 9.68887 55.05058 7.39953 -12.14047 90.60276 6.31638 -55.76435 21.84609 -106.58662 -15.97451 9.95246 113.74735 -17.36491 -3.74587 -49.40978 -8.53114 -2.69018 -2.10722 120.01915 -0.6828 6.23533 -54.49473 -9.60087 4.88756 3.39977
-1.67183 -0.35168 -0.3776 -321.81166 -66.48214 -16.45029 -9.64665 3.16175 7.62734 8.66607 -15.72818 -0.83079 83.53957 -11.62164 -6.14119 9.90104 58.49454 5.96102 -12.34709 88.09009 4.9456 -53.45174 23.64607 -107.31014 -16.08056 10.05727 112.54085 -17.40073 -3.41384 -48.81563 -8.52446 -2.72916 -2.12923 118.93086 -0.80054 6.28113 -54.07354 -9.71956 4.82149 3.36863
-1.66964 -0.34898 -0.37718 -320.43665 -65.97763 -15.21418 -9.21986 3.21603 8.04527 7.76533 -14.7072 -0.83079 82.16747 -11.25459 -6.14461 10.10665 61.42684 4.72335 -12.52781 85.59527 3.42342 -52.74347 25.51326 -108.46417 -16.44043 10.19955 111.40424 -17.50063 -3.15745 -48.27438 -8.51342 -2.75584 -2.14408 117.8902 -0.95241 6.31553 -53.67404 -9.84052 4.7621 3.34125
-1.66732 -0.34602 -0.37677 -318.8834 -65.48371 -13.85261 -8.7592 3.30336 8.52453 6.85677 -13.55717 -0.83079 80.70906 -10.98366 -6.0293 10.39106 65.04186 3.19599 -12.75895 82.81746 1.53752 -51.59823 27.64098 -109.72054 -16.77302 10.34496 110.21091 -17.63793 -2.85312 -47.67429 -8.50406 -2.79088 -2.16382 116.70335 -1.10708 6.53095 -53.08894 -9.94081 4.69883 3.31038
-1.66527 -0.34359 -0.37634 -317.75213 -64.94758 -12.80203 -8.3662 3.3245 8.81909 5.97748 -12.68287 -0.83079 79.42271 -10.44733 -6.13603 10.50652 67.42057 2.19951 -12.89285 80.66768 0.53068 -50.56861 29.14087 -110.50703 -17.02434 10.46177 109.11156 -17.65947 -2.61338 -47.17865 -8.49337 -2.81402 -2.17659 115.81403 -1.23485 6.35848 -52.89163 -10.08128 4.6408 3.2851
-1.66386 -0.34252 -0.3758 -317.73878 -64.29887 -12.55786 -8.15571 3.15576 8.66085 5.13679 -12.5684 -0.83079 78.60566 -9.21432 -6.98363 10.14422 66.03797 2.81171 -12.72687 80.14434 1.88239 -50.83174 29.07579 -110.32132 -17.23767 10.54785 108.27545 -17.38629 -2.58782 -46.98582 -8.4763 -2.79949 -2.16716 115.77934 -1.32977 5.07499 -53.86915 -10.37103 4.59929 3.27846
-1.66274 -0.342 -0.37527 -318.14608 -63.61598 -12.62389 -8.01653 2.92163 8.32191 4.33393 -12.73341 -0.83079 77.96932 -7.72829 -8.03095 9.61833 63.4087 3.95631 -12.46307 80.26796 4.09245 -51.27836 28.36731 -109.67297 -17.37251 10.60336 107.54551 -17.0041 -2.63111 -46.90322 -8.45778 -2.77222 -2.15028 116.0427 -1.39606 3.41398 -55.21518 -10.69448 4.56371 3.27742
-1.66154 -0.34129 -0.37477 -318.36197 -62.96174 -12.55252 -7.85244 2.72005 8.06418 3.53844 -12.77154 -0.83079 77.26637 -6.3776 -8.91315 9.17516 61.4391 4.81478 -12.26135 80.15223 5.87237 -51.56863 27.8779 -109.17736 -17.51034 10.65521 106.78588 -16.68018 -2.64047 -46.776 -8.44027 -2.75043 -2.1367 116.15314 -1.45934 1.96334 -56.31588 -10.9745 4.52623 3.27269
-1.66011 -0.34035 -0.3741 -318.58244 -62.24594 -12.4686 -7.65667 2.50448 7.80649 2.63649 -12.80727 -0.83079 76.49694 -4.93193 -10.11975 8.68492 59.09014 5.85404 -11.99589 79.80717 7.83655 -52.14316 27.67844 -108.89995 -17.78231 10.77814 105.94072 -16.31365 -2.65521 -46.62305 -8.42135 -2.73065 -2.12391 116.33213 -1.58571 0.34683 -57.7434 -11.36874 4.48507 3.27236
-1.65924 -0.34 -0.3738 -318.89443 -61.65486 -12.48687 -7.54302 2.30531 7.50386 1.96918 -12.9167 -0.83079 75.90793 -3.62706 -10.68372 8.26781 57.24332 6.64095 -11.82772 80.09423 9.61748 -52.09645 26.73928 -108.05973 -17.74473 10.74687 105.30374 -16.01242 -2.67816 -46.5503 -8.40521 -2.70344 -2.10758 116.44451 -1.57736 -1.01345 -58.58152 -11.53893 4.453 3.26453
-1.65976 -0.34113 -0.37441 -319.32455 -61.38817 -12.66935 -7.64922 2.14184 7.16514 1.90355 -13.14073 -0.83079 75.79135 -2.77818 -9.55863 7.97013 56.91656 6.65716 -12.05742 81.94907 10.64887 -51.35454 23.79714 -105.88244 -17.04085 10.29964 105.18892 -15.91512 -2.69555 -46.67818 -8.39449 -2.65812 -2.0828 116.2575 -1.18238 -1.56766 -57.66442 -11.03027 4.4459 3.23248
-1.66085 -0.34283 -0.37542 -319.83683 -61.25338 -12.95025 -7.83404 2.0014 6.78169 2.07808 -13.43256 -0.83079 75.84825 -2.08002 -7.76021 7.77039 57.16098 6.39331 -12.37185 84.41867 11.46808 -49.83775 20.15616 -103.14496 -16.00582 9.69967 105.28462 -15.88845 -2.72091 -46.88161 -8.38707 -2.60581 -2.05476 116.00069 -0.6571 -1.85105 -56.14893 -10.30406 4.44762 3.19312
